screens;
 
http://imgcum.com/img-507f17f203971.html
 
http://imgcum.com/img-507f180355c13.html

Format                                   : MPEG-4
Format profile                           : Base Media / Version 2
Codec ID                                 : mp42
File size                                : 449 MiB
Duration                                 : 20mn 6s
Overall bit rate mode                    : Variable
Overall bit rate                         : 3 124 Kbps
Encoded date                             : UTC 2012-10-10 19:10:20
Tagged date                              : UTC 2012-10-10 19:10:20
?TIM                                     : 00;00;00;00
?TSC                                     : 30000
?TSZ                                     : 1001

Video
ID                                       : 1
Format                                   : AVC
Format/Info                              : Advanced Video Codec
Format profile                           : High@L3.2
Format settings, CABAC                   : Yes
Format settings, ReFrames                : 3 frames
Codec ID                                 : avc1
Codec ID/Info                            : Advanced Video Coding
Duration                                 : 20mn 6s
Bit rate                                 : 2 994 Kbps
Width                                    : 1 280 pixels
Height                                   : 720 pixels
Display aspect ratio                     : 16:9
Frame rate mode                          : Constant
Frame rate                               : 29.970 fps
Standard                                 : NTSC
Color space                              : YUV
Chroma subsampling                       : 4:2:0
Bit depth                                : 8 bits
Scan type                                : Progressive
Bits/(Pixel*Frame)                       : 0.108
Stream size                              : 431 MiB (96%)
Language                                 : English
Encoded date                             : UTC 2012-10-10 19:10:20
Tagged date                              : UTC 2012-10-10 19:10:20
Color primaries                          : BT.709-5, BT.1361, IEC 61966-2-4, SMPTE RP177
Transfer characteristics                 : BT.709-5, BT.1361
Matrix coefficients                      : BT.709-5, BT.1361, IEC 61966-2-4 709, SMPTE RP177

Audio
ID                                       : 2
Format                                   : AAC
Format/Info                              : Advanced Audio Codec
Format profile                           : LC
Codec ID                                 : 40
Duration                                 : 20mn 6s
Source duration                          : 20mn 6s
Bit rate mode                            : Variable
Bit rate                                 : 125 Kbps
Maximum bit rate                         : 212 Kbps
Channel(s)                               : 2 channels
Channel positions                        : Front: L R
Sampling rate                            : 48.0 KHz
Compression mode                         : Lossy
Stream size                              : 18.0 MiB (4%)
Source stream size                       : 18.0 MiB (4%)
Language                                 : English
Encoded date                             : UTC 2012-10-10 19:10:20
Tagged date                              : UTC 2012-10-10 19:10:20
